<?xml version="1.0" encoding="UTF-8" standalone="no"?>
<!DOCTYPE svg PUBLIC "-//W3C//DTD SVG 1.1//EN" "http://www.w3.org/Graphics/SVG/1.1/DTD/svg11.dtd">
<svg width="100%" height="100%" viewBox="0 0 684 297" version="1.1" xmlns="http://www.w3.org/2000/svg" xmlns:xlink="http://www.w3.org/1999/xlink" xml:space="preserve" xmlns:serif="http://www.serif.com/" style="fill-rule:evenodd;clip-rule:evenodd;">
    <g transform="matrix(0.941322,0,0,0.846558,30.6659,24.1897)">
        <g id="layer3">
            <rect x="-32.578" y="-28.574" width="726.638" height="350.832" style="fill:url(#_Radial1);"/>
        </g>
    </g>
    <g id="layer1">
        <path id="path1505-3" d="M198.279,191.787C200.26,192.281 202.127,193.065 203.831,194.091L208.881,189.041L215.872,196.032L210.822,201.082C211.848,202.786 212.632,204.653 213.126,206.634L220.264,206.634L220.264,216.52L213.126,216.52C212.632,218.501 211.849,220.368 210.822,222.073L215.872,227.123L208.881,234.114L203.831,229.064C202.127,230.09 200.26,230.873 198.279,231.367L198.279,238.505L188.393,238.505L188.393,231.367C186.412,230.874 184.545,230.09 182.84,229.064L177.79,234.114L170.8,227.123L175.85,222.073C174.824,220.368 174.04,218.501 173.546,216.52L166.408,216.52L166.408,206.634L173.546,206.634C174.04,204.653 174.823,202.787 175.85,201.082L170.8,196.032L177.79,189.041L182.84,194.091C184.545,193.065 186.412,192.281 188.393,191.787L188.393,184.649L198.279,184.649L198.279,191.787ZM193.336,200.118C199.66,200.118 204.795,205.253 204.795,211.577C204.795,217.901 199.66,223.036 193.336,223.036C187.012,223.036 181.877,217.901 181.877,211.577C181.877,205.253 187.012,200.118 193.336,200.118Z" style="fill:rgb(68,101,164);"/>
        <g>
            <path id="path1505" d="M495.607,52.561C497.588,53.055 499.455,53.839 501.16,54.865L506.21,49.815L513.2,56.806L508.15,61.856C509.177,63.561 509.96,65.427 510.454,67.408L517.592,67.408L517.592,77.295L510.454,77.295C509.96,79.275 509.177,81.142 508.15,82.847L513.2,87.897L506.21,94.888L501.16,89.838C499.455,90.864 497.588,91.648 495.607,92.142L495.607,99.279L485.721,99.279L485.721,92.142C483.74,91.648 481.873,90.864 480.169,89.838L475.119,94.888L468.128,87.897L473.178,82.847C472.152,81.142 471.368,79.276 470.874,77.295L463.736,77.295L463.736,67.408L470.874,67.408C471.368,65.427 472.152,63.561 473.178,61.856L468.128,56.806L475.119,49.815L480.169,54.865C481.873,53.839 483.74,53.055 485.721,52.561L485.721,45.423L495.607,45.423L495.607,52.561ZM490.664,60.893C496.988,60.893 502.123,66.027 502.123,72.351C502.123,78.676 496.988,83.81 490.664,83.81C484.34,83.81 479.205,78.676 479.205,72.351C479.205,66.027 484.34,60.893 490.664,60.893Z" style="fill:rgb(69,102,164);fill-opacity:0.99;"/>
            <path id="path1505-5" d="M530.991,85.149C532.273,85.469 533.482,85.976 534.585,86.64L537.855,83.371L542.381,87.897L539.111,91.166C539.776,92.27 540.283,93.478 540.603,94.761L545.224,94.761L545.224,101.161L540.603,101.161C540.283,102.444 539.776,103.652 539.111,104.756L542.381,108.025L537.855,112.551L534.585,109.282C533.482,109.946 532.273,110.454 530.991,110.773L530.991,115.394L524.59,115.394L524.59,110.773C523.308,110.454 522.1,109.946 520.996,109.282L517.726,112.551L513.2,108.025L516.47,104.756C515.806,103.652 515.298,102.444 514.978,101.161L510.357,101.161L510.357,94.761L514.978,94.761C515.298,93.478 515.805,92.27 516.47,91.166L513.2,87.897L517.726,83.371L520.996,86.64C522.099,85.976 523.308,85.469 524.59,85.149L524.59,80.528L530.991,80.528L530.991,85.149ZM527.791,90.543C531.885,90.543 535.209,93.867 535.209,97.961C535.209,102.055 531.885,105.38 527.791,105.38C523.696,105.38 520.372,102.055 520.372,97.961C520.372,93.867 523.696,90.543 527.791,90.543Z" style="fill:rgb(68,101,164);"/>
        </g>
        <path d="M511.798,215.492L500.573,254.891L493.402,254.891L504.699,215.492L511.798,215.492ZM483.125,246.571L460.578,237.172L460.578,232.391L483.125,222.969L483.125,229.165L469.197,234.782L483.125,240.36L483.125,246.571ZM522.078,222.969L544.625,232.344L544.625,237.149L522.078,246.571L522.078,240.374L535.993,234.763L522.078,229.18L522.078,222.969Z" style="fill:rgb(135,170,222);fill-rule:nonzero;"/>
        <g id="g1256" transform="matrix(1,0,0,1,92.7579,-27.4554)">
            <g id="path94" transform="matrix(1,0,0,1,-92.7579,27.4554)">
                <path d="M185.438,47.009C212.048,47.009 233.652,68.613 233.652,95.223C233.652,121.833 212.048,143.438 185.438,143.438C158.827,143.438 137.223,121.833 137.223,95.223C137.223,68.613 158.827,47.009 185.438,47.009ZM185.438,57.723C206.134,57.723 222.938,74.526 222.938,95.223C222.938,115.92 206.134,132.723 185.438,132.723C164.741,132.723 147.938,115.92 147.938,95.223C147.938,74.526 164.741,57.723 185.438,57.723Z" style="fill:rgb(135,170,222);"/>
            </g>
            <g id="path133-5" transform="matrix(1,0,0,1,4.08494,0.809246)">
                <path d="M73.193,83.968C73.193,83.968 63.488,123.015 73.193,159.235" style="fill:none;fill-rule:nonzero;stroke:rgb(135,170,222);stroke-width:7.55px;"/>
            </g>
            <g id="path133-3" transform="matrix(1,0,0,1,4.08494,0.809246)">
                <path d="M103.996,159.771C103.996,159.771 113.702,120.724 103.996,84.503" style="fill:none;fill-rule:nonzero;stroke:rgb(135,170,222);stroke-width:7.55px;"/>
            </g>
            <g id="path133-5-3" transform="matrix(-3.82857e-16,-1,1,-3.82857e-16,-29.1897,211.273)">
                <path d="M73.193,83.968C73.193,83.968 63.488,123.015 73.193,159.235" style="fill:none;fill-rule:nonzero;stroke:rgb(135,170,222);stroke-width:7.55px;"/>
            </g>
            <g id="path133-3-2" transform="matrix(-3.82857e-16,-1,1,-3.82857e-16,-29.1897,211.273)">
                <path d="M103.996,159.771C103.996,159.771 113.702,120.724 103.996,84.503" style="fill:none;fill-rule:nonzero;stroke:rgb(135,170,222);stroke-width:7.55px;"/>
            </g>
        </g>
        <g>
            <path id="rect24" d="M483.161,82.857C483.161,69.059 471.959,57.857 458.161,57.857L225.839,57.857C212.041,57.857 200.839,69.059 200.839,82.857L200.839,201.071C200.839,214.869 212.041,226.071 225.839,226.071L458.161,226.071C471.959,226.071 483.161,214.869 483.161,201.071L483.161,82.857Z" style="fill:rgb(153,153,153);"/>
            <path id="rect26" d="M471.375,84.304C471.375,75.473 464.206,68.304 455.375,68.304L228.625,68.304C219.794,68.304 212.625,75.473 212.625,84.304L212.625,199.625C212.625,208.456 219.794,215.625 228.625,215.625L455.375,215.625C464.206,215.625 471.375,208.456 471.375,199.625L471.375,84.304Z" style="fill:rgb(26,26,26);"/>
            <rect id="rect88" x="310.661" y="218.571" width="62.679" height="35.893" style="fill:rgb(153,153,153);"/>
            <path id="rect90" d="M425.839,247.679C425.839,244.919 423.599,242.679 420.839,242.679L263.161,242.679C260.401,242.679 258.161,244.919 258.161,247.679L258.161,253.214C258.161,255.974 260.401,258.214 263.161,258.214L420.839,258.214C423.599,258.214 425.839,255.974 425.839,253.214L425.839,247.679Z" style="fill:rgb(153,153,153);"/>
            <rect id="rect1492" x="43.796" y="258.025" width="596.409" height="8.531" style="fill:rgb(79,88,103);fill-opacity:0.99;"/>
        </g>
        <g>
            <path id="rect1004" d="M471.375,84.497C471.375,75.667 464.206,68.497 455.375,68.497L401.179,68.497C392.348,68.497 385.179,75.667 385.179,84.497L385.179,199.625C385.179,208.456 392.348,215.625 401.179,215.625L455.375,215.625C464.206,215.625 471.375,208.456 471.375,199.625L471.375,84.497Z" style="fill:rgb(51,51,51);"/>
            <path id="rect1058" d="M461.008,88.822C461.008,84.959 457.872,81.822 454.008,81.822L405.126,81.822C401.263,81.822 398.126,84.959 398.126,88.822L398.126,119.143C398.126,123.006 401.263,126.143 405.126,126.143L454.008,126.143C457.872,126.143 461.008,123.006 461.008,119.143L461.008,88.822Z" style="fill:rgb(55,113,200);"/>
        </g>
        <g>
            <g id="rect1008" transform="matrix(1,0,0,1,0.624972,0.0625022)">
                <path d="M282.589,90.937C282.589,89.533 281.449,88.393 280.045,88.393L221.92,88.393C220.515,88.393 219.375,89.533 219.375,90.937C219.375,92.342 220.515,93.482 221.92,93.482L280.045,93.482C281.449,93.482 282.589,92.342 282.589,90.937Z" style="fill:rgb(204,204,204);"/>
            </g>
            <g id="rect1008-0" transform="matrix(1,0,0,1,0.624972,0.14286)">
                <path d="M305.893,102.857C305.893,101.453 304.753,100.312 303.348,100.312L221.92,100.312C220.515,100.312 219.375,101.453 219.375,102.857C219.375,104.262 220.515,105.402 221.92,105.402L303.348,105.402C304.753,105.402 305.893,104.262 305.893,102.857Z" style="fill:rgb(204,204,204);"/>
            </g>
            <g id="rect1008-0-3" transform="matrix(1,0,0,1,0.177302,-0.862025)">
                <path d="M277.551,116.862C277.551,115.458 276.411,114.317 275.007,114.317L222.367,114.317C220.963,114.317 219.823,115.458 219.823,116.862C219.823,118.266 220.963,119.407 222.367,119.407L275.007,119.407C276.411,119.407 277.551,118.266 277.551,116.862Z" style="fill:rgb(55,113,200);"/>
            </g>
            <g id="rect1008-0-8" transform="matrix(1,0,0,1,0.223169,-0.116073)">
                <path d="M306.295,128.571C306.295,127.167 305.154,126.027 303.75,126.027L222.321,126.027C220.917,126.027 219.777,127.167 219.777,128.571C219.777,129.976 220.917,131.116 222.321,131.116L303.75,131.116C305.154,131.116 306.295,129.976 306.295,128.571Z" style="fill:rgb(204,204,204);"/>
            </g>
            <path id="rect1008-0-36" d="M293.705,178.661C293.705,177.256 292.565,176.116 291.161,176.116L223.125,176.116C221.721,176.116 220.58,177.256 220.58,178.661C220.58,180.065 221.721,181.205 223.125,181.205L291.161,181.205C292.565,181.205 293.705,180.065 293.705,178.661Z" style="fill:rgb(204,204,204);"/>
            <g id="rect1008-0-2" transform="matrix(1,0,0,1,-0.866109,-0.0446406)">
                <path d="M329.866,192.589C329.866,191.185 328.726,190.045 327.321,190.045L223.393,190.045C221.988,190.045 220.848,191.185 220.848,192.589C220.848,193.994 221.988,195.134 223.393,195.134L327.321,195.134C328.726,195.134 329.866,193.994 329.866,192.589Z" style="fill:rgb(204,204,204);"/>
            </g>
        </g>
        <g id="layer2">
            <rect id="rect1203" x="116.688" y="130.471" width="450.625" height="56.445" style="fill:rgb(28,31,36);"/>
            <g transform="matrix(1,0,0,1,114.296,178.668)">
                <g transform="matrix(56.0001,0,0,56.0001,0,0)">
                    <path d="M0.311,0.01C0.257,0.01 0.205,0.002 0.155,-0.013C0.104,-0.028 0.064,-0.049 0.035,-0.074L0.08,-0.175C0.109,-0.152 0.144,-0.134 0.186,-0.119C0.227,-0.105 0.269,-0.098 0.311,-0.098C0.363,-0.098 0.402,-0.106 0.428,-0.123C0.453,-0.14 0.466,-0.162 0.466,-0.189C0.466,-0.209 0.459,-0.226 0.445,-0.238C0.43,-0.252 0.412,-0.262 0.39,-0.269C0.368,-0.276 0.338,-0.285 0.3,-0.294C0.247,-0.307 0.203,-0.319 0.171,-0.332C0.138,-0.345 0.109,-0.365 0.086,-0.392C0.062,-0.419 0.05,-0.455 0.05,-0.501C0.05,-0.54 0.061,-0.575 0.082,-0.607C0.102,-0.638 0.134,-0.663 0.177,-0.682C0.219,-0.701 0.271,-0.71 0.332,-0.71C0.375,-0.71 0.417,-0.705 0.458,-0.694C0.499,-0.683 0.535,-0.668 0.565,-0.648L0.524,-0.547C0.493,-0.565 0.461,-0.579 0.428,-0.588C0.395,-0.597 0.362,-0.602 0.331,-0.602C0.28,-0.602 0.242,-0.593 0.217,-0.576C0.192,-0.559 0.179,-0.536 0.179,-0.507C0.179,-0.487 0.186,-0.471 0.201,-0.458C0.215,-0.445 0.233,-0.435 0.255,-0.428C0.277,-0.421 0.307,-0.412 0.345,-0.403C0.397,-0.391 0.44,-0.379 0.473,-0.366C0.506,-0.353 0.535,-0.333 0.559,-0.306C0.582,-0.279 0.594,-0.243 0.594,-0.198C0.594,-0.159 0.584,-0.124 0.563,-0.093C0.542,-0.062 0.51,-0.037 0.467,-0.018C0.424,0.001 0.372,0.01 0.311,0.01Z" style="fill:white;fill-rule:nonzero;"/>
                </g>
                <g transform="matrix(56.0001,0,0,56.0001,35.2241,0)">
                    <rect x="0.094" y="-0.7" width="0.13" height="0.7" style="fill:white;fill-rule:nonzero;"/>
                </g>
                <g transform="matrix(56.0001,0,0,56.0001,53.0881,0)">
                    <path d="M0.552,-0L0.409,-0.205C0.403,-0.204 0.394,-0.204 0.382,-0.204L0.224,-0.204L0.224,-0L0.094,-0L0.094,-0.7L0.382,-0.7C0.443,-0.7 0.496,-0.69 0.541,-0.67C0.586,-0.65 0.62,-0.621 0.644,-0.584C0.668,-0.547 0.68,-0.502 0.68,-0.451C0.68,-0.398 0.667,-0.353 0.642,-0.315C0.616,-0.277 0.579,-0.249 0.531,-0.23L0.692,-0L0.552,-0ZM0.549,-0.451C0.549,-0.496 0.534,-0.53 0.505,-0.554C0.476,-0.578 0.433,-0.59 0.376,-0.59L0.224,-0.59L0.224,-0.311L0.376,-0.311C0.433,-0.311 0.476,-0.323 0.505,-0.347C0.534,-0.372 0.549,-0.406 0.549,-0.451Z" style="fill:white;fill-rule:nonzero;"/>
                </g>
                <g transform="matrix(56.0001,0,0,56.0001,109.48,0)">
                    <path d="M0.382,-0.7C0.443,-0.7 0.496,-0.69 0.541,-0.67C0.586,-0.65 0.62,-0.621 0.644,-0.584C0.668,-0.547 0.68,-0.502 0.68,-0.451C0.68,-0.4 0.668,-0.356 0.644,-0.319C0.62,-0.281 0.586,-0.252 0.541,-0.232C0.496,-0.212 0.443,-0.202 0.382,-0.202L0.224,-0.202L0.224,-0L0.094,-0L0.094,-0.7L0.382,-0.7ZM0.376,-0.312C0.433,-0.312 0.476,-0.324 0.505,-0.348C0.534,-0.372 0.549,-0.406 0.549,-0.451C0.549,-0.496 0.534,-0.53 0.505,-0.554C0.476,-0.578 0.433,-0.59 0.376,-0.59L0.224,-0.59L0.224,-0.312L0.376,-0.312Z" style="fill:white;fill-rule:nonzero;"/>
                </g>
                <g transform="matrix(56.0001,0,0,56.0001,147.616,0)">
                    <path d="M0.548,-0.162L0.198,-0.162L0.129,-0L-0.005,-0L0.31,-0.7L0.438,-0.7L0.754,-0L0.618,-0L0.548,-0.162ZM0.505,-0.264L0.373,-0.57L0.242,-0.264L0.505,-0.264Z" style="fill:white;fill-rule:nonzero;"/>
                </g>
                <g transform="matrix(56.0001,0,0,56.0001,266.841,0)">
                    <path d="M0.548,-0.162L0.198,-0.162L0.129,-0L-0.005,-0L0.31,-0.7L0.438,-0.7L0.754,-0L0.618,-0L0.548,-0.162ZM0.505,-0.264L0.373,-0.57L0.242,-0.264L0.505,-0.264Z" style="fill:white;fill-rule:nonzero;"/>
                </g>
                <g transform="matrix(56.0001,0,0,56.0001,308.225,0)">
                    <path d="M0.572,-0.358L0.695,-0.358L0.695,-0.079C0.659,-0.05 0.617,-0.028 0.569,-0.013C0.521,0.002 0.472,0.01 0.421,0.01C0.35,0.01 0.285,-0.006 0.228,-0.037C0.171,-0.068 0.126,-0.11 0.093,-0.165C0.06,-0.22 0.044,-0.281 0.044,-0.35C0.044,-0.419 0.06,-0.48 0.093,-0.535C0.126,-0.59 0.171,-0.632 0.229,-0.664C0.286,-0.695 0.351,-0.71 0.423,-0.71C0.482,-0.71 0.535,-0.7 0.583,-0.681C0.631,-0.662 0.671,-0.633 0.704,-0.596L0.622,-0.516C0.569,-0.569 0.504,-0.596 0.429,-0.596C0.38,-0.596 0.336,-0.586 0.298,-0.565C0.259,-0.544 0.229,-0.515 0.207,-0.478C0.186,-0.441 0.175,-0.398 0.175,-0.35C0.175,-0.303 0.186,-0.261 0.207,-0.224C0.229,-0.187 0.259,-0.157 0.298,-0.136C0.336,-0.115 0.379,-0.104 0.428,-0.104C0.483,-0.104 0.531,-0.116 0.572,-0.14L0.572,-0.358Z" style="fill:white;fill-rule:nonzero;"/>
                </g>
                <g transform="matrix(56.0001,0,0,56.0001,351.457,0)">
                    <path d="M0.421,0.01C0.35,0.01 0.285,-0.006 0.228,-0.037C0.171,-0.068 0.126,-0.111 0.093,-0.166C0.06,-0.221 0.044,-0.282 0.044,-0.35C0.044,-0.418 0.06,-0.48 0.093,-0.535C0.126,-0.59 0.171,-0.632 0.228,-0.664C0.285,-0.695 0.35,-0.71 0.421,-0.71C0.492,-0.71 0.557,-0.695 0.614,-0.664C0.671,-0.632 0.716,-0.59 0.749,-0.535C0.782,-0.48 0.798,-0.419 0.798,-0.35C0.798,-0.281 0.782,-0.22 0.749,-0.165C0.716,-0.11 0.671,-0.068 0.614,-0.037C0.557,-0.006 0.492,0.01 0.421,0.01ZM0.421,-0.104C0.468,-0.104 0.51,-0.115 0.547,-0.136C0.584,-0.157 0.614,-0.186 0.635,-0.224C0.656,-0.261 0.667,-0.303 0.667,-0.35C0.667,-0.397 0.656,-0.439 0.635,-0.476C0.614,-0.514 0.584,-0.544 0.547,-0.565C0.51,-0.586 0.468,-0.596 0.421,-0.596C0.374,-0.596 0.332,-0.586 0.295,-0.565C0.258,-0.544 0.228,-0.514 0.207,-0.476C0.186,-0.439 0.175,-0.397 0.175,-0.35C0.175,-0.303 0.186,-0.261 0.207,-0.224C0.228,-0.186 0.258,-0.157 0.295,-0.136C0.332,-0.115 0.374,-0.104 0.421,-0.104Z" style="fill:white;fill-rule:nonzero;"/>
                </g>
                <g transform="matrix(56.0001,0,0,56.0001,398.609,0)">
                    <path d="M0.716,-0.7L0.716,-0L0.609,-0L0.223,-0.474L0.223,-0L0.094,-0L0.094,-0.7L0.201,-0.7L0.587,-0.226L0.587,-0.7L0.716,-0.7Z" style="fill:white;fill-rule:nonzero;"/>
                </g>
            </g>
            <path id="path1258" d="M334.703,149.454L334.703,184.414L311.133,180.981L313.498,139.138C313.513,138.65 313.54,138.164 313.58,137.68L313.586,137.579L313.589,137.578C314.839,122.99 327.091,111.523 342,111.523C356.909,111.523 369.162,122.99 370.411,137.578L370.414,137.579L370.42,137.68C370.46,138.163 370.487,138.649 370.502,139.138L372.867,180.981L349.297,184.414L349.297,149.454L361.429,149.454L361.429,136.618L322.571,136.618L322.571,149.454L334.703,149.454Z" style="fill:rgb(204,204,204);"/>
        </g>
    </g>
    <defs>
        <radialGradient id="_Radial1" cx="0" cy="0" r="1" gradientUnits="userSpaceOnUse" gradientTransform="matrix(362.892,0,0,169.531,330.741,158.883)"><stop offset="0" style="stop-color:rgb(28,31,36);stop-opacity:1"/><stop offset="0.7" style="stop-color:rgb(28,31,36);stop-opacity:1"/><stop offset="0.84" style="stop-color:rgb(28,31,36);stop-opacity:0.71"/><stop offset="1" style="stop-color:rgb(28,31,36);stop-opacity:0"/></radialGradient>
    </defs>
</svg>
