<?xml version="1.0" encoding="UTF-8" standalone="no"?>
<!DOCTYPE svg PUBLIC "-//W3C//DTD SVG 1.1//EN" "http://www.w3.org/Graphics/SVG/1.1/DTD/svg11.dtd">
<svg width="100%" height="100%" viewBox="0 0 300 100" version="1.1" xmlns="http://www.w3.org/2000/svg" xmlns:xlink="http://www.w3.org/1999/xlink" xml:space="preserve" xmlns:serif="http://www.serif.com/" style="fill-rule:evenodd;clip-rule:evenodd;stroke-linejoin:round;stroke-miterlimit:2;">
    <g id="path1258" transform="matrix(1,0,0,1,-290.125,-97.9686)">
        <path d="M334.703,149.454L334.703,184.414L311.133,180.981L313.498,139.138C313.513,138.65 313.54,138.164 313.58,137.68L313.586,137.579L313.589,137.578C314.839,122.99 327.091,111.523 342,111.523C356.909,111.523 369.162,122.99 370.411,137.578L370.414,137.579L370.42,137.68C370.46,138.163 370.487,138.649 370.502,139.138L372.867,180.981L349.297,184.414L349.297,149.454L361.429,149.454L361.429,136.618L322.571,136.618L322.571,149.454L334.703,149.454Z" style="fill:rgb(127,127,127);"/>
    </g>
    <g transform="matrix(3.87781,0,0,1.43158,-237.349,-12.249)">
        <g transform="matrix(8.76783,0,0,23.75,85.3068,39.4529)">
            <path d="M0.841,-0.7L0.841,-0L0.77,-0L0.77,-0.56L0.495,-0.089L0.46,-0.089L0.185,-0.557L0.185,-0L0.114,-0L0.114,-0.7L0.175,-0.7L0.479,-0.181L0.78,-0.7L0.841,-0.7Z" style="fill:rgb(127,127,127);fill-rule:nonzero;"/>
        </g>
        <g transform="matrix(8.76783,0,0,23.75,93.6801,39.4529)">
            <path d="M0.283,-0.53C0.352,-0.53 0.404,-0.513 0.441,-0.478C0.478,-0.444 0.496,-0.393 0.496,-0.326L0.496,-0L0.428,-0L0.428,-0.082C0.412,-0.055 0.389,-0.033 0.358,-0.018C0.327,-0.003 0.29,0.005 0.247,0.005C0.188,0.005 0.142,-0.009 0.107,-0.037C0.072,-0.065 0.055,-0.102 0.055,-0.148C0.055,-0.193 0.071,-0.229 0.103,-0.256C0.136,-0.283 0.187,-0.297 0.258,-0.297L0.425,-0.297L0.425,-0.329C0.425,-0.374 0.412,-0.409 0.387,-0.433C0.362,-0.456 0.325,-0.468 0.276,-0.468C0.243,-0.468 0.211,-0.463 0.18,-0.452C0.149,-0.441 0.123,-0.425 0.101,-0.406L0.069,-0.459C0.096,-0.482 0.128,-0.499 0.165,-0.511C0.202,-0.524 0.242,-0.53 0.283,-0.53ZM0.258,-0.051C0.298,-0.051 0.332,-0.06 0.361,-0.079C0.39,-0.097 0.411,-0.123 0.425,-0.158L0.425,-0.244L0.26,-0.244C0.17,-0.244 0.125,-0.213 0.125,-0.15C0.125,-0.119 0.137,-0.095 0.16,-0.078C0.183,-0.06 0.216,-0.051 0.258,-0.051Z" style="fill:rgb(127,127,127);fill-rule:nonzero;"/>
        </g>
        <g transform="matrix(8.76783,0,0,23.75,98.8706,39.4529)">
            <path d="M0.579,-0.742L0.579,-0L0.511,-0L0.511,-0.104C0.49,-0.069 0.462,-0.042 0.427,-0.023C0.392,-0.004 0.352,0.005 0.308,0.005C0.259,0.005 0.214,-0.006 0.174,-0.029C0.134,-0.052 0.103,-0.083 0.08,-0.124C0.057,-0.165 0.046,-0.211 0.046,-0.263C0.046,-0.315 0.057,-0.361 0.08,-0.402C0.103,-0.443 0.134,-0.474 0.174,-0.497C0.214,-0.519 0.259,-0.53 0.308,-0.53C0.351,-0.53 0.389,-0.521 0.424,-0.503C0.458,-0.486 0.486,-0.46 0.508,-0.426L0.508,-0.742L0.579,-0.742ZM0.314,-0.058C0.351,-0.058 0.384,-0.067 0.413,-0.084C0.443,-0.101 0.467,-0.125 0.484,-0.156C0.5,-0.187 0.509,-0.223 0.509,-0.263C0.509,-0.303 0.5,-0.339 0.484,-0.37C0.467,-0.401 0.443,-0.426 0.413,-0.443C0.384,-0.46 0.351,-0.468 0.314,-0.468C0.277,-0.468 0.243,-0.46 0.214,-0.443C0.184,-0.426 0.161,-0.401 0.143,-0.37C0.127,-0.339 0.118,-0.303 0.118,-0.263C0.118,-0.223 0.127,-0.187 0.143,-0.156C0.161,-0.125 0.184,-0.101 0.214,-0.084C0.243,-0.067 0.277,-0.058 0.314,-0.058Z" style="fill:rgb(127,127,127);fill-rule:nonzero;"/>
        </g>
        <g transform="matrix(8.76783,0,0,23.75,104.815,39.4529)">
            <path d="M0.557,-0.241L0.117,-0.241C0.121,-0.186 0.142,-0.142 0.18,-0.109C0.218,-0.075 0.266,-0.058 0.324,-0.058C0.357,-0.058 0.387,-0.064 0.414,-0.076C0.441,-0.087 0.465,-0.104 0.485,-0.127L0.525,-0.081C0.502,-0.053 0.472,-0.032 0.438,-0.017C0.403,-0.002 0.364,0.005 0.322,0.005C0.268,0.005 0.22,-0.007 0.179,-0.029C0.137,-0.053 0.104,-0.084 0.081,-0.125C0.058,-0.166 0.046,-0.212 0.046,-0.263C0.046,-0.314 0.057,-0.36 0.08,-0.401C0.102,-0.442 0.133,-0.473 0.172,-0.496C0.211,-0.519 0.254,-0.53 0.303,-0.53C0.352,-0.53 0.395,-0.519 0.434,-0.496C0.473,-0.473 0.503,-0.442 0.525,-0.402C0.547,-0.361 0.558,-0.315 0.558,-0.263L0.557,-0.241ZM0.303,-0.469C0.252,-0.469 0.21,-0.453 0.175,-0.421C0.141,-0.388 0.122,-0.346 0.117,-0.294L0.49,-0.294C0.485,-0.346 0.466,-0.388 0.432,-0.421C0.397,-0.453 0.354,-0.469 0.303,-0.469Z" style="fill:rgb(127,127,127);fill-rule:nonzero;"/>
        </g>
        <g transform="matrix(8.76783,0,0,23.75,112.408,39.4529)">
            <path d="M0.37,-0.53C0.419,-0.53 0.464,-0.519 0.504,-0.497C0.544,-0.474 0.575,-0.443 0.598,-0.402C0.621,-0.361 0.632,-0.315 0.632,-0.263C0.632,-0.211 0.621,-0.165 0.598,-0.124C0.575,-0.083 0.544,-0.052 0.504,-0.029C0.464,-0.006 0.419,0.005 0.37,0.005C0.326,0.005 0.286,-0.004 0.252,-0.023C0.217,-0.042 0.188,-0.069 0.167,-0.104L0.167,-0L0.099,-0L0.099,-0.742L0.17,-0.742L0.17,-0.426C0.192,-0.46 0.22,-0.486 0.255,-0.503C0.289,-0.521 0.327,-0.53 0.37,-0.53ZM0.365,-0.058C0.402,-0.058 0.435,-0.067 0.465,-0.084C0.495,-0.101 0.519,-0.125 0.536,-0.156C0.553,-0.187 0.561,-0.223 0.561,-0.263C0.561,-0.303 0.553,-0.339 0.536,-0.37C0.519,-0.401 0.495,-0.426 0.465,-0.443C0.435,-0.46 0.402,-0.468 0.365,-0.468C0.328,-0.468 0.294,-0.46 0.265,-0.443C0.235,-0.426 0.212,-0.401 0.195,-0.37C0.178,-0.339 0.169,-0.303 0.169,-0.263C0.169,-0.223 0.178,-0.187 0.195,-0.156C0.212,-0.125 0.235,-0.101 0.265,-0.084C0.294,-0.067 0.328,-0.058 0.365,-0.058Z" style="fill:rgb(127,127,127);fill-rule:nonzero;"/>
        </g>
        <g transform="matrix(8.76783,0,0,23.75,118.221,39.4529)">
            <path d="M0.541,-0.526L0.278,0.063C0.257,0.112 0.232,0.147 0.204,0.168C0.176,0.189 0.142,0.199 0.103,0.199C0.078,0.199 0.054,0.195 0.032,0.187C0.01,0.179 -0.009,0.167 -0.025,0.151L0.008,0.098C0.035,0.125 0.067,0.138 0.104,0.138C0.128,0.138 0.149,0.131 0.166,0.118C0.183,0.105 0.198,0.082 0.213,0.05L0.236,-0.001L0.001,-0.526L0.075,-0.526L0.273,-0.079L0.471,-0.526L0.541,-0.526Z" style="fill:rgb(127,127,127);fill-rule:nonzero;"/>
        </g>
        <g transform="matrix(8.76783,0,0,23.75,85.3068,63.2029)">
            <path d="M0.307,0.006C0.255,0.006 0.205,-0.002 0.158,-0.019C0.11,-0.036 0.073,-0.058 0.047,-0.085L0.076,-0.142C0.101,-0.117 0.135,-0.096 0.177,-0.081C0.219,-0.065 0.262,-0.057 0.307,-0.057C0.37,-0.057 0.417,-0.069 0.448,-0.092C0.479,-0.115 0.495,-0.144 0.495,-0.181C0.495,-0.209 0.487,-0.231 0.469,-0.248C0.453,-0.265 0.432,-0.278 0.407,-0.286C0.382,-0.296 0.348,-0.305 0.304,-0.316C0.251,-0.329 0.209,-0.342 0.178,-0.355C0.147,-0.367 0.12,-0.386 0.098,-0.411C0.075,-0.436 0.064,-0.471 0.064,-0.514C0.064,-0.549 0.073,-0.582 0.092,-0.611C0.111,-0.64 0.139,-0.663 0.178,-0.68C0.217,-0.697 0.265,-0.706 0.322,-0.706C0.362,-0.706 0.401,-0.701 0.44,-0.69C0.478,-0.679 0.511,-0.663 0.539,-0.644L0.514,-0.585C0.485,-0.604 0.453,-0.619 0.42,-0.628C0.387,-0.638 0.354,-0.643 0.322,-0.643C0.261,-0.643 0.215,-0.631 0.184,-0.608C0.153,-0.584 0.137,-0.553 0.137,-0.516C0.137,-0.488 0.146,-0.466 0.163,-0.449C0.18,-0.432 0.201,-0.419 0.227,-0.409C0.252,-0.401 0.287,-0.391 0.33,-0.38C0.381,-0.367 0.423,-0.355 0.455,-0.343C0.486,-0.33 0.513,-0.312 0.535,-0.286C0.557,-0.262 0.568,-0.228 0.568,-0.185C0.568,-0.15 0.559,-0.117 0.54,-0.089C0.521,-0.059 0.491,-0.037 0.452,-0.02C0.413,-0.003 0.364,0.006 0.307,0.006Z" style="fill:rgb(127,127,127);fill-rule:nonzero;"/>
        </g>
        <g transform="matrix(8.76783,0,0,23.75,90.699,63.2029)">
            <path d="M0.099,-0.526L0.17,-0.526L0.17,-0L0.099,-0L0.099,-0.526ZM0.135,-0.641C0.12,-0.641 0.108,-0.646 0.098,-0.656C0.088,-0.666 0.083,-0.678 0.083,-0.692C0.083,-0.705 0.088,-0.717 0.098,-0.727C0.108,-0.737 0.12,-0.742 0.135,-0.742C0.15,-0.742 0.162,-0.737 0.172,-0.728C0.182,-0.718 0.187,-0.706 0.187,-0.693C0.187,-0.678 0.182,-0.666 0.172,-0.656C0.162,-0.646 0.15,-0.641 0.135,-0.641Z" style="fill:rgb(127,127,127);fill-rule:nonzero;"/>
        </g>
        <g transform="matrix(8.76783,0,0,23.75,93.0576,63.2029)">
            <path d="M0.167,-0.423C0.184,-0.458 0.209,-0.485 0.242,-0.503C0.275,-0.521 0.315,-0.53 0.364,-0.53L0.364,-0.461L0.347,-0.462C0.292,-0.462 0.248,-0.445 0.217,-0.411C0.186,-0.377 0.17,-0.329 0.17,-0.268L0.17,-0L0.099,-0L0.099,-0.526L0.167,-0.526L0.167,-0.423Z" style="fill:rgb(127,127,127);fill-rule:nonzero;"/>
        </g>
        <g transform="matrix(8.76783,0,0,23.75,96.4419,63.2029)">
            <path d="M0.376,-0.7C0.465,-0.7 0.535,-0.679 0.586,-0.636C0.637,-0.593 0.662,-0.535 0.662,-0.46C0.662,-0.385 0.637,-0.327 0.586,-0.284C0.535,-0.242 0.465,-0.221 0.376,-0.221L0.188,-0.221L0.188,-0L0.114,-0L0.114,-0.7L0.376,-0.7ZM0.374,-0.286C0.443,-0.286 0.496,-0.301 0.533,-0.332C0.57,-0.362 0.588,-0.405 0.588,-0.46C0.588,-0.517 0.57,-0.56 0.533,-0.591C0.496,-0.621 0.443,-0.636 0.374,-0.636L0.188,-0.636L0.188,-0.286L0.374,-0.286Z" style="fill:rgb(127,127,127);fill-rule:nonzero;"/>
        </g>
        <g transform="matrix(8.76783,0,0,23.75,102.606,63.2029)">
            <path d="M0.283,-0.53C0.352,-0.53 0.404,-0.513 0.441,-0.478C0.478,-0.444 0.496,-0.393 0.496,-0.326L0.496,-0L0.428,-0L0.428,-0.082C0.412,-0.055 0.389,-0.033 0.358,-0.018C0.327,-0.003 0.29,0.005 0.247,0.005C0.188,0.005 0.142,-0.009 0.107,-0.037C0.072,-0.065 0.055,-0.102 0.055,-0.148C0.055,-0.193 0.071,-0.229 0.103,-0.256C0.136,-0.283 0.187,-0.297 0.258,-0.297L0.425,-0.297L0.425,-0.329C0.425,-0.374 0.412,-0.409 0.387,-0.433C0.362,-0.456 0.325,-0.468 0.276,-0.468C0.243,-0.468 0.211,-0.463 0.18,-0.452C0.149,-0.441 0.123,-0.425 0.101,-0.406L0.069,-0.459C0.096,-0.482 0.128,-0.499 0.165,-0.511C0.202,-0.524 0.242,-0.53 0.283,-0.53ZM0.258,-0.051C0.298,-0.051 0.332,-0.06 0.361,-0.079C0.39,-0.097 0.411,-0.123 0.425,-0.158L0.425,-0.244L0.26,-0.244C0.17,-0.244 0.125,-0.213 0.125,-0.15C0.125,-0.119 0.137,-0.095 0.16,-0.078C0.183,-0.06 0.216,-0.051 0.258,-0.051Z" style="fill:rgb(127,127,127);fill-rule:nonzero;"/>
        </g>
        <g transform="matrix(8.76783,0,0,23.75,107.779,63.2029)">
            <path d="M0.376,-0.032C0.363,-0.02 0.346,-0.011 0.327,-0.005C0.307,0.002 0.286,0.005 0.265,0.005C0.216,0.005 0.178,-0.008 0.151,-0.035C0.124,-0.062 0.111,-0.099 0.111,-0.148L0.111,-0.466L0.017,-0.466L0.017,-0.526L0.111,-0.526L0.111,-0.641L0.182,-0.641L0.182,-0.526L0.342,-0.526L0.342,-0.466L0.182,-0.466L0.182,-0.152C0.182,-0.121 0.19,-0.097 0.205,-0.081C0.221,-0.064 0.244,-0.056 0.273,-0.056C0.288,-0.056 0.302,-0.058 0.316,-0.063C0.329,-0.068 0.341,-0.074 0.351,-0.083L0.376,-0.032Z" style="fill:rgb(127,127,127);fill-rule:nonzero;"/>
        </g>
        <g transform="matrix(8.76783,0,0,23.75,111.338,63.2029)">
            <path d="M0.283,-0.53C0.352,-0.53 0.404,-0.513 0.441,-0.478C0.478,-0.444 0.496,-0.393 0.496,-0.326L0.496,-0L0.428,-0L0.428,-0.082C0.412,-0.055 0.389,-0.033 0.358,-0.018C0.327,-0.003 0.29,0.005 0.247,0.005C0.188,0.005 0.142,-0.009 0.107,-0.037C0.072,-0.065 0.055,-0.102 0.055,-0.148C0.055,-0.193 0.071,-0.229 0.103,-0.256C0.136,-0.283 0.187,-0.297 0.258,-0.297L0.425,-0.297L0.425,-0.329C0.425,-0.374 0.412,-0.409 0.387,-0.433C0.362,-0.456 0.325,-0.468 0.276,-0.468C0.243,-0.468 0.211,-0.463 0.18,-0.452C0.149,-0.441 0.123,-0.425 0.101,-0.406L0.069,-0.459C0.096,-0.482 0.128,-0.499 0.165,-0.511C0.202,-0.524 0.242,-0.53 0.283,-0.53ZM0.258,-0.051C0.298,-0.051 0.332,-0.06 0.361,-0.079C0.39,-0.097 0.411,-0.123 0.425,-0.158L0.425,-0.244L0.26,-0.244C0.17,-0.244 0.125,-0.213 0.125,-0.15C0.125,-0.119 0.137,-0.095 0.16,-0.078C0.183,-0.06 0.216,-0.051 0.258,-0.051Z" style="fill:rgb(127,127,127);fill-rule:nonzero;"/>
        </g>
        <g transform="matrix(8.76783,0,0,23.75,116.529,63.2029)">
            <path d="M0.586,-0.526L0.586,-0.064C0.586,0.025 0.564,0.091 0.521,0.134C0.477,0.177 0.411,0.199 0.323,0.199C0.274,0.199 0.228,0.192 0.185,0.177C0.141,0.163 0.105,0.143 0.078,0.118L0.114,0.064C0.139,0.087 0.17,0.104 0.206,0.117C0.243,0.13 0.281,0.136 0.321,0.136C0.388,0.136 0.437,0.12 0.468,0.089C0.499,0.058 0.515,0.01 0.515,-0.055L0.515,-0.122C0.493,-0.089 0.464,-0.063 0.429,-0.046C0.393,-0.029 0.353,-0.02 0.31,-0.02C0.261,-0.02 0.216,-0.031 0.175,-0.053C0.135,-0.074 0.103,-0.105 0.081,-0.143C0.058,-0.183 0.046,-0.227 0.046,-0.276C0.046,-0.325 0.058,-0.369 0.081,-0.408C0.103,-0.447 0.135,-0.477 0.175,-0.498C0.215,-0.519 0.26,-0.53 0.31,-0.53C0.355,-0.53 0.395,-0.521 0.431,-0.503C0.467,-0.485 0.496,-0.459 0.518,-0.425L0.518,-0.526L0.586,-0.526ZM0.317,-0.083C0.355,-0.083 0.389,-0.091 0.42,-0.108C0.451,-0.124 0.474,-0.147 0.492,-0.176C0.508,-0.205 0.517,-0.239 0.517,-0.276C0.517,-0.313 0.508,-0.346 0.492,-0.376C0.474,-0.405 0.451,-0.427 0.421,-0.444C0.39,-0.46 0.356,-0.468 0.317,-0.468C0.279,-0.468 0.245,-0.46 0.215,-0.444C0.184,-0.428 0.161,-0.405 0.143,-0.376C0.127,-0.347 0.118,-0.313 0.118,-0.276C0.118,-0.239 0.127,-0.205 0.143,-0.176C0.161,-0.147 0.184,-0.124 0.215,-0.108C0.245,-0.091 0.279,-0.083 0.317,-0.083Z" style="fill:rgb(127,127,127);fill-rule:nonzero;"/>
        </g>
        <g transform="matrix(8.76783,0,0,23.75,122.544,63.2029)">
            <path d="M0.314,0.005C0.263,0.005 0.218,-0.007 0.177,-0.029C0.136,-0.053 0.104,-0.084 0.081,-0.125C0.058,-0.166 0.046,-0.212 0.046,-0.263C0.046,-0.314 0.058,-0.36 0.081,-0.401C0.104,-0.442 0.136,-0.473 0.177,-0.496C0.218,-0.519 0.263,-0.53 0.314,-0.53C0.365,-0.53 0.41,-0.519 0.451,-0.496C0.492,-0.473 0.524,-0.442 0.547,-0.401C0.57,-0.36 0.581,-0.314 0.581,-0.263C0.581,-0.212 0.57,-0.166 0.547,-0.125C0.524,-0.084 0.492,-0.053 0.451,-0.029C0.41,-0.007 0.365,0.005 0.314,0.005ZM0.314,-0.058C0.351,-0.058 0.385,-0.067 0.414,-0.084C0.444,-0.101 0.467,-0.125 0.484,-0.156C0.501,-0.187 0.509,-0.223 0.509,-0.263C0.509,-0.303 0.501,-0.339 0.484,-0.37C0.467,-0.401 0.444,-0.426 0.414,-0.443C0.385,-0.46 0.351,-0.468 0.314,-0.468C0.277,-0.468 0.243,-0.46 0.214,-0.443C0.184,-0.426 0.161,-0.401 0.143,-0.37C0.127,-0.339 0.118,-0.303 0.118,-0.263C0.118,-0.223 0.127,-0.187 0.143,-0.156C0.161,-0.125 0.184,-0.101 0.214,-0.084C0.243,-0.067 0.277,-0.058 0.314,-0.058Z" style="fill:rgb(127,127,127);fill-rule:nonzero;"/>
        </g>
        <g transform="matrix(8.76783,0,0,23.75,128.041,63.2029)">
            <path d="M0.367,-0.53C0.433,-0.53 0.486,-0.511 0.525,-0.472C0.564,-0.434 0.583,-0.378 0.583,-0.305L0.583,-0L0.512,-0L0.512,-0.298C0.512,-0.353 0.498,-0.394 0.471,-0.423C0.444,-0.452 0.405,-0.466 0.354,-0.466C0.297,-0.466 0.253,-0.449 0.22,-0.416C0.187,-0.382 0.17,-0.335 0.17,-0.276L0.17,-0L0.099,-0L0.099,-0.526L0.167,-0.526L0.167,-0.429C0.186,-0.461 0.213,-0.486 0.248,-0.503C0.282,-0.521 0.322,-0.53 0.367,-0.53Z" style="fill:rgb(127,127,127);fill-rule:nonzero;"/>
        </g>
    </g>
</svg>
