<?xml version="1.0" encoding="utf-8"?>
<svg viewBox="0 0 500 500" xmlns="http://www.w3.org/2000/svg">
  <defs>
    <linearGradient gradientUnits="userSpaceOnUse" x1="250" y1="0.3" x2="250" y2="499.7" id="gradient-0" gradientTransform="matrix(0.701151, -0.713013, 1.001202, 1.001202, -175.588179, 177.952705)">
      <stop offset="0" style="stop-color: rgb(174, 0, 174);"/>
      <stop offset="1" style="stop-color: rgb(174, 174, 0);"/>
    </linearGradient>
  </defs>
  <path id="path1258" d="M 200.006 260.178 L 200.006 499.7 L 38.52 476.179 L 54.724 189.499 C 54.826 186.156 55.011 182.826 55.285 179.51 L 55.326 178.819 L 55.346 178.811 C 63.911 78.864 147.853 0.3 250 0.3 C 352.147 0.3 436.096 78.864 444.653 178.811 L 444.673 178.819 L 444.715 179.51 C 444.988 182.82 445.173 186.149 445.276 189.499 L 461.48 476.179 L 299.994 499.7 L 299.994 260.178 L 383.114 260.178 L 383.114 172.234 L 116.886 172.234 L 116.886 260.178 L 200.006 260.178 Z" style="fill: url('#gradient-0');" transform="matrix(1, 0, 0, 1, 2.2737367544323206e-13, 1.1368683772161603e-13)"/>
</svg>